<?xml version="1.0" encoding="utf-8" standalone="no"?>
<!DOCTYPE svg PUBLIC "-//W3C//DTD SVG 1.1//EN"
  "http://www.w3.org/Graphics/SVG/1.1/DTD/svg11.dtd">
<svg xmlns:xlink="http://www.w3.org/1999/xlink" width="1008pt" height="360pt" viewBox="0 0 1008 360" xmlns="http://www.w3.org/2000/svg" version="1.1">
 <metadata>
  <rdf:RDF xmlns:dc="http://purl.org/dc/elements/1.1/" xmlns:cc="http://creativecommons.org/ns#" xmlns:rdf="http://www.w3.org/1999/02/22-rdf-syntax-ns#">
   <cc:Work>
    <dc:type rdf:resource="http://purl.org/dc/dcmitype/StillImage"/>
    <dc:date>2026-05-05T14:40:58.245840</dc:date>
    <dc:format>image/svg+xml</dc:format>
    <dc:creator>
     <cc:Agent>
      <dc:title>Matplotlib v3.10.9, https://matplotlib.org/</dc:title>
     </cc:Agent>
    </dc:creator>
   </cc:Work>
  </rdf:RDF>
 </metadata>
 <defs>
  <style type="text/css">*{stroke-linejoin: round; stroke-linecap: butt}</style>
 </defs>
 <g id="figure_1">
  <g id="patch_1">
   <path d="M 0 360 
L 1008 360 
L 1008 0 
L 0 0 
z
" style="fill: #ffffff"/>
  </g>
  <g id="axes_1">
   <g id="patch_2">
    <path d="M 50.87 318.04 
L 498.6 318.04 
L 498.6 26.88 
L 50.87 26.88 
z
" style="fill: #ffffff"/>
   </g>
   <g id="FillBetweenPolyCollection_1">
    <defs>
     <path id="me727cf8fe1" d="M 71.221364 -55.206194 
L 71.221364 -55.194545 
L 206.897121 -69.45289 
L 342.572879 -124.139001 
L 410.410758 -183.863292 
L 478.248636 -291.572622 
L 478.248636 -293.052042 
L 478.248636 -293.052042 
L 410.410758 -184.9117 
L 342.572879 -124.430225 
L 206.897121 -69.51696 
L 71.221364 -55.206194 
z
" style="stroke: #2563eb; stroke-opacity: 0.15"/>
    </defs>
    <g clip-path="url(#pc8ba68c2f6)">
     <use xlink:href="#me727cf8fe1" x="0" y="360" style="fill: #2563eb; fill-opacity: 0.15; stroke: #2563eb; stroke-opacity: 0.15"/>
    </g>
   </g>
   <g id="FillBetweenPolyCollection_2">
    <defs>
     <path id="m9884ed9fa4" d="M 71.221364 -55.206194 
L 71.221364 -55.20037 
L 206.897121 -69.409206 
L 342.572879 -126.232904 
L 410.410758 -190.249843 
L 478.248636 -312.849474 
L 478.248636 -319.885455 
L 478.248636 -319.885455 
L 410.410758 -191.688491 
L 342.572879 -126.495006 
L 206.897121 -69.915937 
L 71.221364 -55.206194 
z
" style="stroke: #dc2626; stroke-opacity: 0.15"/>
    </defs>
    <g clip-path="url(#pc8ba68c2f6)">
     <use xlink:href="#m9884ed9fa4" x="0" y="360" style="fill: #dc2626; fill-opacity: 0.15; stroke: #dc2626; stroke-opacity: 0.15"/>
    </g>
   </g>
   <g id="FillBetweenPolyCollection_3">
    <defs>
     <path id="m1a4b58e6f1" d="M 71.221364 -64.161344 
L 71.221364 -63.864295 
L 206.897121 -88.528086 
L 342.572879 -90.968546 
L 410.410758 -94.967056 
L 478.248636 -105.159909 
L 478.248636 -105.468607 
L 478.248636 -105.468607 
L 410.410758 -95.264105 
L 342.572879 -91.288893 
L 206.897121 -88.638751 
L 71.221364 -64.161344 
z
" style="stroke: #16a34a; stroke-opacity: 0.15"/>
    </defs>
    <g clip-path="url(#pc8ba68c2f6)">
     <use xlink:href="#m1a4b58e6f1" x="0" y="360" style="fill: #16a34a; fill-opacity: 0.15; stroke: #16a34a; stroke-opacity: 0.15"/>
    </g>
   </g>
   <g id="matplotlib.axis_1">
    <g id="xtick_1">
     <g id="line2d_1">
      <path d="M 71.221364 318.04 
L 71.221364 26.88 
" clip-path="url(#pc8ba68c2f6)" style="fill: none; stroke: #b0b0b0; stroke-opacity: 0.3; stroke-width: 0.8; stroke-linecap: square"/>
     </g>
     <g id="line2d_2">
      <defs>
       <path id="m660026cb6e" d="M 0 0 
L 0 3.5 
" style="stroke: #000000; stroke-width: 0.8"/>
      </defs>
      <g>
       <use xlink:href="#m660026cb6e" x="71.221364" y="318.04" style="stroke: #000000; stroke-width: 0.8"/>
      </g>
     </g>
     <g id="text_1">
      <!-- 1 -->
      <g transform="translate(68.040114 332.638438) scale(0.1 -0.1)">
       <defs>
        <path id="DejaVuSans-31" d="M 794 531 
L 1825 531 
L 1825 4091 
L 703 3866 
L 703 4441 
L 1819 4666 
L 2450 4666 
L 2450 531 
L 3481 531 
L 3481 0 
L 794 0 
L 794 531 
z
" transform="scale(0.015625)"/>
       </defs>
       <use xlink:href="#DejaVuSans-31"/>
      </g>
     </g>
    </g>
    <g id="xtick_2">
     <g id="line2d_3">
      <path d="M 206.897121 318.04 
L 206.897121 26.88 
" clip-path="url(#pc8ba68c2f6)" style="fill: none; stroke: #b0b0b0; stroke-opacity: 0.3; stroke-width: 0.8; stroke-linecap: square"/>
     </g>
     <g id="line2d_4">
      <g>
       <use xlink:href="#m660026cb6e" x="206.897121" y="318.04" style="stroke: #000000; stroke-width: 0.8"/>
      </g>
     </g>
     <g id="text_2">
      <!-- 4 -->
      <g transform="translate(203.715871 332.638438) scale(0.1 -0.1)">
       <defs>
        <path id="DejaVuSans-34" d="M 2419 4116 
L 825 1625 
L 2419 1625 
L 2419 4116 
z
M 2253 4666 
L 3047 4666 
L 3047 1625 
L 3713 1625 
L 3713 1100 
L 3047 1100 
L 3047 0 
L 2419 0 
L 2419 1100 
L 313 1100 
L 313 1709 
L 2253 4666 
z
" transform="scale(0.015625)"/>
       </defs>
       <use xlink:href="#DejaVuSans-34"/>
      </g>
     </g>
    </g>
    <g id="xtick_3">
     <g id="line2d_5">
      <path d="M 342.572879 318.04 
L 342.572879 26.88 
" clip-path="url(#pc8ba68c2f6)" style="fill: none; stroke: #b0b0b0; stroke-opacity: 0.3; stroke-width: 0.8; stroke-linecap: square"/>
     </g>
     <g id="line2d_6">
      <g>
       <use xlink:href="#m660026cb6e" x="342.572879" y="318.04" style="stroke: #000000; stroke-width: 0.8"/>
      </g>
     </g>
     <g id="text_3">
      <!-- 16 -->
      <g transform="translate(336.210379 332.638438) scale(0.1 -0.1)">
       <defs>
        <path id="DejaVuSans-36" d="M 2113 2584 
Q 1688 2584 1439 2293 
Q 1191 2003 1191 1497 
Q 1191 994 1439 701 
Q 1688 409 2113 409 
Q 2538 409 2786 701 
Q 3034 994 3034 1497 
Q 3034 2003 2786 2293 
Q 2538 2584 2113 2584 
z
M 3366 4563 
L 3366 3988 
Q 3128 4100 2886 4159 
Q 2644 4219 2406 4219 
Q 1781 4219 1451 3797 
Q 1122 3375 1075 2522 
Q 1259 2794 1537 2939 
Q 1816 3084 2150 3084 
Q 2853 3084 3261 2657 
Q 3669 2231 3669 1497 
Q 3669 778 3244 343 
Q 2819 -91 2113 -91 
Q 1303 -91 875 529 
Q 447 1150 447 2328 
Q 447 3434 972 4092 
Q 1497 4750 2381 4750 
Q 2619 4750 2861 4703 
Q 3103 4656 3366 4563 
z
" transform="scale(0.015625)"/>
       </defs>
       <use xlink:href="#DejaVuSans-31"/>
       <use xlink:href="#DejaVuSans-36" transform="translate(63.623047 0)"/>
      </g>
     </g>
    </g>
    <g id="xtick_4">
     <g id="line2d_7">
      <path d="M 410.410758 318.04 
L 410.410758 26.88 
" clip-path="url(#pc8ba68c2f6)" style="fill: none; stroke: #b0b0b0; stroke-opacity: 0.3; stroke-width: 0.8; stroke-linecap: square"/>
     </g>
     <g id="line2d_8">
      <g>
       <use xlink:href="#m660026cb6e" x="410.410758" y="318.04" style="stroke: #000000; stroke-width: 0.8"/>
      </g>
     </g>
     <g id="text_4">
      <!-- 32 -->
      <g transform="translate(404.048258 332.638438) scale(0.1 -0.1)">
       <defs>
        <path id="DejaVuSans-33" d="M 2597 2516 
Q 3050 2419 3304 2112 
Q 3559 1806 3559 1356 
Q 3559 666 3084 287 
Q 2609 -91 1734 -91 
Q 1441 -91 1130 -33 
Q 819 25 488 141 
L 488 750 
Q 750 597 1062 519 
Q 1375 441 1716 441 
Q 2309 441 2620 675 
Q 2931 909 2931 1356 
Q 2931 1769 2642 2001 
Q 2353 2234 1838 2234 
L 1294 2234 
L 1294 2753 
L 1863 2753 
Q 2328 2753 2575 2939 
Q 2822 3125 2822 3475 
Q 2822 3834 2567 4026 
Q 2313 4219 1838 4219 
Q 1578 4219 1281 4162 
Q 984 4106 628 3988 
L 628 4550 
Q 988 4650 1302 4700 
Q 1616 4750 1894 4750 
Q 2613 4750 3031 4423 
Q 3450 4097 3450 3541 
Q 3450 3153 3228 2886 
Q 3006 2619 2597 2516 
z
" transform="scale(0.015625)"/>
        <path id="DejaVuSans-32" d="M 1228 531 
L 3431 531 
L 3431 0 
L 469 0 
L 469 531 
Q 828 903 1448 1529 
Q 2069 2156 2228 2338 
Q 2531 2678 2651 2914 
Q 2772 3150 2772 3378 
Q 2772 3750 2511 3984 
Q 2250 4219 1831 4219 
Q 1534 4219 1204 4116 
Q 875 4013 500 3803 
L 500 4441 
Q 881 4594 1212 4672 
Q 1544 4750 1819 4750 
Q 2544 4750 2975 4387 
Q 3406 4025 3406 3419 
Q 3406 3131 3298 2873 
Q 3191 2616 2906 2266 
Q 2828 2175 2409 1742 
Q 1991 1309 1228 531 
z
" transform="scale(0.015625)"/>
       </defs>
       <use xlink:href="#DejaVuSans-33"/>
       <use xlink:href="#DejaVuSans-32" transform="translate(63.623047 0)"/>
      </g>
     </g>
    </g>
    <g id="xtick_5">
     <g id="line2d_9">
      <path d="M 478.248636 318.04 
L 478.248636 26.88 
" clip-path="url(#pc8ba68c2f6)" style="fill: none; stroke: #b0b0b0; stroke-opacity: 0.3; stroke-width: 0.8; stroke-linecap: square"/>
     </g>
     <g id="line2d_10">
      <g>
       <use xlink:href="#m660026cb6e" x="478.248636" y="318.04" style="stroke: #000000; stroke-width: 0.8"/>
      </g>
     </g>
     <g id="text_5">
      <!-- 64 -->
      <g transform="translate(471.886136 332.638438) scale(0.1 -0.1)">
       <use xlink:href="#DejaVuSans-36"/>
       <use xlink:href="#DejaVuSans-34" transform="translate(63.623047 0)"/>
      </g>
     </g>
    </g>
    <g id="text_6">
     <!-- Concurrent Requests -->
     <g transform="translate(222.477187 346.316563) scale(0.1 -0.1)">
      <defs>
       <path id="DejaVuSans-43" d="M 4122 4306 
L 4122 3641 
Q 3803 3938 3442 4084 
Q 3081 4231 2675 4231 
Q 1875 4231 1450 3742 
Q 1025 3253 1025 2328 
Q 1025 1406 1450 917 
Q 1875 428 2675 428 
Q 3081 428 3442 575 
Q 3803 722 4122 1019 
L 4122 359 
Q 3791 134 3420 21 
Q 3050 -91 2638 -91 
Q 1578 -91 968 557 
Q 359 1206 359 2328 
Q 359 3453 968 4101 
Q 1578 4750 2638 4750 
Q 3056 4750 3426 4639 
Q 3797 4528 4122 4306 
z
" transform="scale(0.015625)"/>
       <path id="DejaVuSans-6f" d="M 1959 3097 
Q 1497 3097 1228 2736 
Q 959 2375 959 1747 
Q 959 1119 1226 758 
Q 1494 397 1959 397 
Q 2419 397 2687 759 
Q 2956 1122 2956 1747 
Q 2956 2369 2687 2733 
Q 2419 3097 1959 3097 
z
M 1959 3584 
Q 2709 3584 3137 3096 
Q 3566 2609 3566 1747 
Q 3566 888 3137 398 
Q 2709 -91 1959 -91 
Q 1206 -91 779 398 
Q 353 888 353 1747 
Q 353 2609 779 3096 
Q 1206 3584 1959 3584 
z
" transform="scale(0.015625)"/>
       <path id="DejaVuSans-6e" d="M 3513 2113 
L 3513 0 
L 2938 0 
L 2938 2094 
Q 2938 2591 2744 2837 
Q 2550 3084 2163 3084 
Q 1697 3084 1428 2787 
Q 1159 2491 1159 1978 
L 1159 0 
L 581 0 
L 581 3500 
L 1159 3500 
L 1159 2956 
Q 1366 3272 1645 3428 
Q 1925 3584 2291 3584 
Q 2894 3584 3203 3211 
Q 3513 2838 3513 2113 
z
" transform="scale(0.015625)"/>
       <path id="DejaVuSans-63" d="M 3122 3366 
L 3122 2828 
Q 2878 2963 2633 3030 
Q 2388 3097 2138 3097 
Q 1578 3097 1268 2742 
Q 959 2388 959 1747 
Q 959 1106 1268 751 
Q 1578 397 2138 397 
Q 2388 397 2633 464 
Q 2878 531 3122 666 
L 3122 134 
Q 2881 22 2623 -34 
Q 2366 -91 2075 -91 
Q 1284 -91 818 406 
Q 353 903 353 1747 
Q 353 2603 823 3093 
Q 1294 3584 2113 3584 
Q 2378 3584 2631 3529 
Q 2884 3475 3122 3366 
z
" transform="scale(0.015625)"/>
       <path id="DejaVuSans-75" d="M 544 1381 
L 544 3500 
L 1119 3500 
L 1119 1403 
Q 1119 906 1312 657 
Q 1506 409 1894 409 
Q 2359 409 2629 706 
Q 2900 1003 2900 1516 
L 2900 3500 
L 3475 3500 
L 3475 0 
L 2900 0 
L 2900 538 
Q 2691 219 2414 64 
Q 2138 -91 1772 -91 
Q 1169 -91 856 284 
Q 544 659 544 1381 
z
M 1991 3584 
L 1991 3584 
z
" transform="scale(0.015625)"/>
       <path id="DejaVuSans-72" d="M 2631 2963 
Q 2534 3019 2420 3045 
Q 2306 3072 2169 3072 
Q 1681 3072 1420 2755 
Q 1159 2438 1159 1844 
L 1159 0 
L 581 0 
L 581 3500 
L 1159 3500 
L 1159 2956 
Q 1341 3275 1631 3429 
Q 1922 3584 2338 3584 
Q 2397 3584 2469 3576 
Q 2541 3569 2628 3553 
L 2631 2963 
z
" transform="scale(0.015625)"/>
       <path id="DejaVuSans-65" d="M 3597 1894 
L 3597 1613 
L 953 1613 
Q 991 1019 1311 708 
Q 1631 397 2203 397 
Q 2534 397 2845 478 
Q 3156 559 3463 722 
L 3463 178 
Q 3153 47 2828 -22 
Q 2503 -91 2169 -91 
Q 1331 -91 842 396 
Q 353 884 353 1716 
Q 353 2575 817 3079 
Q 1281 3584 2069 3584 
Q 2775 3584 3186 3129 
Q 3597 2675 3597 1894 
z
M 3022 2063 
Q 3016 2534 2758 2815 
Q 2500 3097 2075 3097 
Q 1594 3097 1305 2825 
Q 1016 2553 972 2059 
L 3022 2063 
z
" transform="scale(0.015625)"/>
       <path id="DejaVuSans-74" d="M 1172 4494 
L 1172 3500 
L 2356 3500 
L 2356 3053 
L 1172 3053 
L 1172 1153 
Q 1172 725 1289 603 
Q 1406 481 1766 481 
L 2356 481 
L 2356 0 
L 1766 0 
Q 1100 0 847 248 
Q 594 497 594 1153 
L 594 3053 
L 172 3053 
L 172 3500 
L 594 3500 
L 594 4494 
L 1172 4494 
z
" transform="scale(0.015625)"/>
       <path id="DejaVuSans-20" transform="scale(0.015625)"/>
       <path id="DejaVuSans-52" d="M 2841 2188 
Q 3044 2119 3236 1894 
Q 3428 1669 3622 1275 
L 4263 0 
L 3584 0 
L 2988 1197 
Q 2756 1666 2539 1819 
Q 2322 1972 1947 1972 
L 1259 1972 
L 1259 0 
L 628 0 
L 628 4666 
L 2053 4666 
Q 2853 4666 3247 4331 
Q 3641 3997 3641 3322 
Q 3641 2881 3436 2590 
Q 3231 2300 2841 2188 
z
M 1259 4147 
L 1259 2491 
L 2053 2491 
Q 2509 2491 2742 2702 
Q 2975 2913 2975 3322 
Q 2975 3731 2742 3939 
Q 2509 4147 2053 4147 
L 1259 4147 
z
" transform="scale(0.015625)"/>
       <path id="DejaVuSans-71" d="M 947 1747 
Q 947 1113 1208 752 
Q 1469 391 1925 391 
Q 2381 391 2643 752 
Q 2906 1113 2906 1747 
Q 2906 2381 2643 2742 
Q 2381 3103 1925 3103 
Q 1469 3103 1208 2742 
Q 947 2381 947 1747 
z
M 2906 525 
Q 2725 213 2448 61 
Q 2172 -91 1784 -91 
Q 1150 -91 751 415 
Q 353 922 353 1747 
Q 353 2572 751 3078 
Q 1150 3584 1784 3584 
Q 2172 3584 2448 3432 
Q 2725 3281 2906 2969 
L 2906 3500 
L 3481 3500 
L 3481 -1331 
L 2906 -1331 
L 2906 525 
z
" transform="scale(0.015625)"/>
       <path id="DejaVuSans-73" d="M 2834 3397 
L 2834 2853 
Q 2591 2978 2328 3040 
Q 2066 3103 1784 3103 
Q 1356 3103 1142 2972 
Q 928 2841 928 2578 
Q 928 2378 1081 2264 
Q 1234 2150 1697 2047 
L 1894 2003 
Q 2506 1872 2764 1633 
Q 3022 1394 3022 966 
Q 3022 478 2636 193 
Q 2250 -91 1575 -91 
Q 1294 -91 989 -36 
Q 684 19 347 128 
L 347 722 
Q 666 556 975 473 
Q 1284 391 1588 391 
Q 1994 391 2212 530 
Q 2431 669 2431 922 
Q 2431 1156 2273 1281 
Q 2116 1406 1581 1522 
L 1381 1569 
Q 847 1681 609 1914 
Q 372 2147 372 2553 
Q 372 3047 722 3315 
Q 1072 3584 1716 3584 
Q 2034 3584 2315 3537 
Q 2597 3491 2834 3397 
z
" transform="scale(0.015625)"/>
      </defs>
      <use xlink:href="#DejaVuSans-43"/>
      <use xlink:href="#DejaVuSans-6f" transform="translate(69.824219 0)"/>
      <use xlink:href="#DejaVuSans-6e" transform="translate(131.005859 0)"/>
      <use xlink:href="#DejaVuSans-63" transform="translate(194.384766 0)"/>
      <use xlink:href="#DejaVuSans-75" transform="translate(249.365234 0)"/>
      <use xlink:href="#DejaVuSans-72" transform="translate(312.744141 0)"/>
      <use xlink:href="#DejaVuSans-72" transform="translate(352.107422 0)"/>
      <use xlink:href="#DejaVuSans-65" transform="translate(390.970703 0)"/>
      <use xlink:href="#DejaVuSans-6e" transform="translate(452.494141 0)"/>
      <use xlink:href="#DejaVuSans-74" transform="translate(515.873047 0)"/>
      <use xlink:href="#DejaVuSans-20" transform="translate(555.082031 0)"/>
      <use xlink:href="#DejaVuSans-52" transform="translate(586.869141 0)"/>
      <use xlink:href="#DejaVuSans-65" transform="translate(651.851562 0)"/>
      <use xlink:href="#DejaVuSans-71" transform="translate(713.375 0)"/>
      <use xlink:href="#DejaVuSans-75" transform="translate(776.851562 0)"/>
      <use xlink:href="#DejaVuSans-65" transform="translate(840.230469 0)"/>
      <use xlink:href="#DejaVuSans-73" transform="translate(901.753906 0)"/>
      <use xlink:href="#DejaVuSans-74" transform="translate(953.853516 0)"/>
      <use xlink:href="#DejaVuSans-73" transform="translate(993.0625 0)"/>
     </g>
    </g>
   </g>
   <g id="matplotlib.axis_2">
    <g id="ytick_1">
     <g id="line2d_11">
      <path d="M 50.87 309.782479 
L 498.6 309.782479 
" clip-path="url(#pc8ba68c2f6)" style="fill: none; stroke: #b0b0b0; stroke-opacity: 0.3; stroke-width: 0.8; stroke-linecap: square"/>
     </g>
     <g id="line2d_12">
      <defs>
       <path id="mae9df2e3e1" d="M 0 0 
L -3.5 0 
" style="stroke: #000000; stroke-width: 0.8"/>
      </defs>
      <g>
       <use xlink:href="#mae9df2e3e1" x="50.87" y="309.782479" style="stroke: #000000; stroke-width: 0.8"/>
      </g>
     </g>
     <g id="text_7">
      <!-- 0 -->
      <g transform="translate(37.5075 313.581698) scale(0.1 -0.1)">
       <defs>
        <path id="DejaVuSans-30" d="M 2034 4250 
Q 1547 4250 1301 3770 
Q 1056 3291 1056 2328 
Q 1056 1369 1301 889 
Q 1547 409 2034 409 
Q 2525 409 2770 889 
Q 3016 1369 3016 2328 
Q 3016 3291 2770 3770 
Q 2525 4250 2034 4250 
z
M 2034 4750 
Q 2819 4750 3233 4129 
Q 3647 3509 3647 2328 
Q 3647 1150 3233 529 
Q 2819 -91 2034 -91 
Q 1250 -91 836 529 
Q 422 1150 422 2328 
Q 422 3509 836 4129 
Q 1250 4750 2034 4750 
z
" transform="scale(0.015625)"/>
       </defs>
       <use xlink:href="#DejaVuSans-30"/>
      </g>
     </g>
    </g>
    <g id="ytick_2">
     <g id="line2d_13">
      <path d="M 50.87 251.537607 
L 498.6 251.537607 
" clip-path="url(#pc8ba68c2f6)" style="fill: none; stroke: #b0b0b0; stroke-opacity: 0.3; stroke-width: 0.8; stroke-linecap: square"/>
     </g>
     <g id="line2d_14">
      <g>
       <use xlink:href="#mae9df2e3e1" x="50.87" y="251.537607" style="stroke: #000000; stroke-width: 0.8"/>
      </g>
     </g>
     <g id="text_8">
      <!-- 200 -->
      <g transform="translate(24.7825 255.336826) scale(0.1 -0.1)">
       <use xlink:href="#DejaVuSans-32"/>
       <use xlink:href="#DejaVuSans-30" transform="translate(63.623047 0)"/>
       <use xlink:href="#DejaVuSans-30" transform="translate(127.246094 0)"/>
      </g>
     </g>
    </g>
    <g id="ytick_3">
     <g id="line2d_15">
      <path d="M 50.87 193.292735 
L 498.6 193.292735 
" clip-path="url(#pc8ba68c2f6)" style="fill: none; stroke: #b0b0b0; stroke-opacity: 0.3; stroke-width: 0.8; stroke-linecap: square"/>
     </g>
     <g id="line2d_16">
      <g>
       <use xlink:href="#mae9df2e3e1" x="50.87" y="193.292735" style="stroke: #000000; stroke-width: 0.8"/>
      </g>
     </g>
     <g id="text_9">
      <!-- 400 -->
      <g transform="translate(24.7825 197.091953) scale(0.1 -0.1)">
       <use xlink:href="#DejaVuSans-34"/>
       <use xlink:href="#DejaVuSans-30" transform="translate(63.623047 0)"/>
       <use xlink:href="#DejaVuSans-30" transform="translate(127.246094 0)"/>
      </g>
     </g>
    </g>
    <g id="ytick_4">
     <g id="line2d_17">
      <path d="M 50.87 135.047863 
L 498.6 135.047863 
" clip-path="url(#pc8ba68c2f6)" style="fill: none; stroke: #b0b0b0; stroke-opacity: 0.3; stroke-width: 0.8; stroke-linecap: square"/>
     </g>
     <g id="line2d_18">
      <g>
       <use xlink:href="#mae9df2e3e1" x="50.87" y="135.047863" style="stroke: #000000; stroke-width: 0.8"/>
      </g>
     </g>
     <g id="text_10">
      <!-- 600 -->
      <g transform="translate(24.7825 138.847081) scale(0.1 -0.1)">
       <use xlink:href="#DejaVuSans-36"/>
       <use xlink:href="#DejaVuSans-30" transform="translate(63.623047 0)"/>
       <use xlink:href="#DejaVuSans-30" transform="translate(127.246094 0)"/>
      </g>
     </g>
    </g>
    <g id="ytick_5">
     <g id="line2d_19">
      <path d="M 50.87 76.80299 
L 498.6 76.80299 
" clip-path="url(#pc8ba68c2f6)" style="fill: none; stroke: #b0b0b0; stroke-opacity: 0.3; stroke-width: 0.8; stroke-linecap: square"/>
     </g>
     <g id="line2d_20">
      <g>
       <use xlink:href="#mae9df2e3e1" x="50.87" y="76.80299" style="stroke: #000000; stroke-width: 0.8"/>
      </g>
     </g>
     <g id="text_11">
      <!-- 800 -->
      <g transform="translate(24.7825 80.602209) scale(0.1 -0.1)">
       <defs>
        <path id="DejaVuSans-38" d="M 2034 2216 
Q 1584 2216 1326 1975 
Q 1069 1734 1069 1313 
Q 1069 891 1326 650 
Q 1584 409 2034 409 
Q 2484 409 2743 651 
Q 3003 894 3003 1313 
Q 3003 1734 2745 1975 
Q 2488 2216 2034 2216 
z
M 1403 2484 
Q 997 2584 770 2862 
Q 544 3141 544 3541 
Q 544 4100 942 4425 
Q 1341 4750 2034 4750 
Q 2731 4750 3128 4425 
Q 3525 4100 3525 3541 
Q 3525 3141 3298 2862 
Q 3072 2584 2669 2484 
Q 3125 2378 3379 2068 
Q 3634 1759 3634 1313 
Q 3634 634 3220 271 
Q 2806 -91 2034 -91 
Q 1263 -91 848 271 
Q 434 634 434 1313 
Q 434 1759 690 2068 
Q 947 2378 1403 2484 
z
M 1172 3481 
Q 1172 3119 1398 2916 
Q 1625 2713 2034 2713 
Q 2441 2713 2670 2916 
Q 2900 3119 2900 3481 
Q 2900 3844 2670 4047 
Q 2441 4250 2034 4250 
Q 1625 4250 1398 4047 
Q 1172 3844 1172 3481 
z
" transform="scale(0.015625)"/>
       </defs>
       <use xlink:href="#DejaVuSans-38"/>
       <use xlink:href="#DejaVuSans-30" transform="translate(63.623047 0)"/>
       <use xlink:href="#DejaVuSans-30" transform="translate(127.246094 0)"/>
      </g>
     </g>
    </g>
    <g id="text_12">
     <!-- Throughput (output tokens/sec) -->
     <g transform="translate(18.702812 251.769375) rotate(-90) scale(0.1 -0.1)">
      <defs>
       <path id="DejaVuSans-54" d="M -19 4666 
L 3928 4666 
L 3928 4134 
L 2272 4134 
L 2272 0 
L 1638 0 
L 1638 4134 
L -19 4134 
L -19 4666 
z
" transform="scale(0.015625)"/>
       <path id="DejaVuSans-68" d="M 3513 2113 
L 3513 0 
L 2938 0 
L 2938 2094 
Q 2938 2591 2744 2837 
Q 2550 3084 2163 3084 
Q 1697 3084 1428 2787 
Q 1159 2491 1159 1978 
L 1159 0 
L 581 0 
L 581 4863 
L 1159 4863 
L 1159 2956 
Q 1366 3272 1645 3428 
Q 1925 3584 2291 3584 
Q 2894 3584 3203 3211 
Q 3513 2838 3513 2113 
z
" transform="scale(0.015625)"/>
       <path id="DejaVuSans-67" d="M 2906 1791 
Q 2906 2416 2648 2759 
Q 2391 3103 1925 3103 
Q 1463 3103 1205 2759 
Q 947 2416 947 1791 
Q 947 1169 1205 825 
Q 1463 481 1925 481 
Q 2391 481 2648 825 
Q 2906 1169 2906 1791 
z
M 3481 434 
Q 3481 -459 3084 -895 
Q 2688 -1331 1869 -1331 
Q 1566 -1331 1297 -1286 
Q 1028 -1241 775 -1147 
L 775 -588 
Q 1028 -725 1275 -790 
Q 1522 -856 1778 -856 
Q 2344 -856 2625 -561 
Q 2906 -266 2906 331 
L 2906 616 
Q 2728 306 2450 153 
Q 2172 0 1784 0 
Q 1141 0 747 490 
Q 353 981 353 1791 
Q 353 2603 747 3093 
Q 1141 3584 1784 3584 
Q 2172 3584 2450 3431 
Q 2728 3278 2906 2969 
L 2906 3500 
L 3481 3500 
L 3481 434 
z
" transform="scale(0.015625)"/>
       <path id="DejaVuSans-70" d="M 1159 525 
L 1159 -1331 
L 581 -1331 
L 581 3500 
L 1159 3500 
L 1159 2969 
Q 1341 3281 1617 3432 
Q 1894 3584 2278 3584 
Q 2916 3584 3314 3078 
Q 3713 2572 3713 1747 
Q 3713 922 3314 415 
Q 2916 -91 2278 -91 
Q 1894 -91 1617 61 
Q 1341 213 1159 525 
z
M 3116 1747 
Q 3116 2381 2855 2742 
Q 2594 3103 2138 3103 
Q 1681 3103 1420 2742 
Q 1159 2381 1159 1747 
Q 1159 1113 1420 752 
Q 1681 391 2138 391 
Q 2594 391 2855 752 
Q 3116 1113 3116 1747 
z
" transform="scale(0.015625)"/>
       <path id="DejaVuSans-28" d="M 1984 4856 
Q 1566 4138 1362 3434 
Q 1159 2731 1159 2009 
Q 1159 1288 1364 580 
Q 1569 -128 1984 -844 
L 1484 -844 
Q 1016 -109 783 600 
Q 550 1309 550 2009 
Q 550 2706 781 3412 
Q 1013 4119 1484 4856 
L 1984 4856 
z
" transform="scale(0.015625)"/>
       <path id="DejaVuSans-6b" d="M 581 4863 
L 1159 4863 
L 1159 1991 
L 2875 3500 
L 3609 3500 
L 1753 1863 
L 3688 0 
L 2938 0 
L 1159 1709 
L 1159 0 
L 581 0 
L 581 4863 
z
" transform="scale(0.015625)"/>
       <path id="DejaVuSans-2f" d="M 1625 4666 
L 2156 4666 
L 531 -594 
L 0 -594 
L 1625 4666 
z
" transform="scale(0.015625)"/>
       <path id="DejaVuSans-29" d="M 513 4856 
L 1013 4856 
Q 1481 4119 1714 3412 
Q 1947 2706 1947 2009 
Q 1947 1309 1714 600 
Q 1481 -109 1013 -844 
L 513 -844 
Q 928 -128 1133 580 
Q 1338 1288 1338 2009 
Q 1338 2731 1133 3434 
Q 928 4138 513 4856 
z
" transform="scale(0.015625)"/>
      </defs>
      <use xlink:href="#DejaVuSans-54"/>
      <use xlink:href="#DejaVuSans-68" transform="translate(61.083984 0)"/>
      <use xlink:href="#DejaVuSans-72" transform="translate(124.462891 0)"/>
      <use xlink:href="#DejaVuSans-6f" transform="translate(163.326172 0)"/>
      <use xlink:href="#DejaVuSans-75" transform="translate(224.507812 0)"/>
      <use xlink:href="#DejaVuSans-67" transform="translate(287.886719 0)"/>
      <use xlink:href="#DejaVuSans-68" transform="translate(351.363281 0)"/>
      <use xlink:href="#DejaVuSans-70" transform="translate(414.742188 0)"/>
      <use xlink:href="#DejaVuSans-75" transform="translate(478.21875 0)"/>
      <use xlink:href="#DejaVuSans-74" transform="translate(541.597656 0)"/>
      <use xlink:href="#DejaVuSans-20" transform="translate(580.806641 0)"/>
      <use xlink:href="#DejaVuSans-28" transform="translate(612.59375 0)"/>
      <use xlink:href="#DejaVuSans-6f" transform="translate(651.607422 0)"/>
      <use xlink:href="#DejaVuSans-75" transform="translate(712.789062 0)"/>
      <use xlink:href="#DejaVuSans-74" transform="translate(776.167969 0)"/>
      <use xlink:href="#DejaVuSans-70" transform="translate(815.376953 0)"/>
      <use xlink:href="#DejaVuSans-75" transform="translate(878.853516 0)"/>
      <use xlink:href="#DejaVuSans-74" transform="translate(942.232422 0)"/>
      <use xlink:href="#DejaVuSans-20" transform="translate(981.441406 0)"/>
      <use xlink:href="#DejaVuSans-74" transform="translate(1013.228516 0)"/>
      <use xlink:href="#DejaVuSans-6f" transform="translate(1052.4375 0)"/>
      <use xlink:href="#DejaVuSans-6b" transform="translate(1113.619141 0)"/>
      <use xlink:href="#DejaVuSans-65" transform="translate(1167.904297 0)"/>
      <use xlink:href="#DejaVuSans-6e" transform="translate(1229.427734 0)"/>
      <use xlink:href="#DejaVuSans-73" transform="translate(1292.806641 0)"/>
      <use xlink:href="#DejaVuSans-2f" transform="translate(1344.90625 0)"/>
      <use xlink:href="#DejaVuSans-73" transform="translate(1378.597656 0)"/>
      <use xlink:href="#DejaVuSans-65" transform="translate(1430.697266 0)"/>
      <use xlink:href="#DejaVuSans-63" transform="translate(1492.220703 0)"/>
      <use xlink:href="#DejaVuSans-29" transform="translate(1547.201172 0)"/>
     </g>
    </g>
   </g>
   <g id="line2d_21">
    <path d="M 71.221364 304.79963 
L 206.897121 290.515075 
L 342.572879 235.715387 
L 410.410758 175.612504 
L 478.248636 67.687668 
" clip-path="url(#pc8ba68c2f6)" style="fill: none; stroke: #2563eb; stroke-width: 2; stroke-linecap: square"/>
    <defs>
     <path id="mfb7dbc0823" d="M 0 3.5 
C 0.928211 3.5 1.81853 3.131218 2.474874 2.474874 
C 3.131218 1.81853 3.5 0.928211 3.5 0 
C 3.5 -0.928211 3.131218 -1.81853 2.474874 -2.474874 
C 1.81853 -3.131218 0.928211 -3.5 0 -3.5 
C -0.928211 -3.5 -1.81853 -3.131218 -2.474874 -2.474874 
C -3.131218 -1.81853 -3.5 -0.928211 -3.5 0 
C -3.5 0.928211 -3.131218 1.81853 -2.474874 2.474874 
C -1.81853 3.131218 -0.928211 3.5 0 3.5 
z
" style="stroke: #2563eb"/>
    </defs>
    <g clip-path="url(#pc8ba68c2f6)">
     <use xlink:href="#mfb7dbc0823" x="71.221364" y="304.79963" style="fill: #2563eb; stroke: #2563eb"/>
     <use xlink:href="#mfb7dbc0823" x="206.897121" y="290.515075" style="fill: #2563eb; stroke: #2563eb"/>
     <use xlink:href="#mfb7dbc0823" x="342.572879" y="235.715387" style="fill: #2563eb; stroke: #2563eb"/>
     <use xlink:href="#mfb7dbc0823" x="410.410758" y="175.612504" style="fill: #2563eb; stroke: #2563eb"/>
     <use xlink:href="#mfb7dbc0823" x="478.248636" y="67.687668" style="fill: #2563eb; stroke: #2563eb"/>
    </g>
   </g>
   <g id="line2d_22">
    <path d="M 71.221364 304.796718 
L 206.897121 290.337428 
L 342.572879 233.636045 
L 410.410758 169.030833 
L 478.248636 43.632536 
" clip-path="url(#pc8ba68c2f6)" style="fill: none; stroke: #dc2626; stroke-width: 2; stroke-linecap: square"/>
    <defs>
     <path id="mfac549b3ba" d="M -3.5 3.5 
L 3.5 3.5 
L 3.5 -3.5 
L -3.5 -3.5 
z
" style="stroke: #dc2626; stroke-linejoin: miter"/>
    </defs>
    <g clip-path="url(#pc8ba68c2f6)">
     <use xlink:href="#mfac549b3ba" x="71.221364" y="304.796718" style="fill: #dc2626; stroke: #dc2626; stroke-linejoin: miter"/>
     <use xlink:href="#mfac549b3ba" x="206.897121" y="290.337428" style="fill: #dc2626; stroke: #dc2626; stroke-linejoin: miter"/>
     <use xlink:href="#mfac549b3ba" x="342.572879" y="233.636045" style="fill: #dc2626; stroke: #dc2626; stroke-linejoin: miter"/>
     <use xlink:href="#mfac549b3ba" x="410.410758" y="169.030833" style="fill: #dc2626; stroke: #dc2626; stroke-linejoin: miter"/>
     <use xlink:href="#mfac549b3ba" x="478.248636" y="43.632536" style="fill: #dc2626; stroke: #dc2626; stroke-linejoin: miter"/>
    </g>
   </g>
   <g id="line2d_23">
    <path d="M 71.221364 295.987181 
L 206.897121 271.416582 
L 342.572879 268.871281 
L 410.410758 264.884419 
L 478.248636 254.685742 
" clip-path="url(#pc8ba68c2f6)" style="fill: none; stroke: #16a34a; stroke-width: 2; stroke-linecap: square"/>
    <defs>
     <path id="m41351dbbd9" d="M 0 -3.5 
L -3.5 3.5 
L 3.5 3.5 
z
" style="stroke: #16a34a; stroke-linejoin: miter"/>
    </defs>
    <g clip-path="url(#pc8ba68c2f6)">
     <use xlink:href="#m41351dbbd9" x="71.221364" y="295.987181" style="fill: #16a34a; stroke: #16a34a; stroke-linejoin: miter"/>
     <use xlink:href="#m41351dbbd9" x="206.897121" y="271.416582" style="fill: #16a34a; stroke: #16a34a; stroke-linejoin: miter"/>
     <use xlink:href="#m41351dbbd9" x="342.572879" y="268.871281" style="fill: #16a34a; stroke: #16a34a; stroke-linejoin: miter"/>
     <use xlink:href="#m41351dbbd9" x="410.410758" y="264.884419" style="fill: #16a34a; stroke: #16a34a; stroke-linejoin: miter"/>
     <use xlink:href="#m41351dbbd9" x="478.248636" y="254.685742" style="fill: #16a34a; stroke: #16a34a; stroke-linejoin: miter"/>
    </g>
   </g>
   <g id="patch_3">
    <path d="M 50.87 318.04 
L 50.87 26.88 
" style="fill: none; stroke: #000000; stroke-width: 0.8; stroke-linejoin: miter; stroke-linecap: square"/>
   </g>
   <g id="patch_4">
    <path d="M 498.6 318.04 
L 498.6 26.88 
" style="fill: none; stroke: #000000; stroke-width: 0.8; stroke-linejoin: miter; stroke-linecap: square"/>
   </g>
   <g id="patch_5">
    <path d="M 50.87 318.04 
L 498.6 318.04 
" style="fill: none; stroke: #000000; stroke-width: 0.8; stroke-linejoin: miter; stroke-linecap: square"/>
   </g>
   <g id="patch_6">
    <path d="M 50.87 26.88 
L 498.6 26.88 
" style="fill: none; stroke: #000000; stroke-width: 0.8; stroke-linejoin: miter; stroke-linecap: square"/>
   </g>
   <g id="text_13">
    <!-- Throughput vs Concurrency (short regime) -->
    <g transform="translate(146.644375 20.88) scale(0.12 -0.12)">
     <defs>
      <path id="DejaVuSans-76" d="M 191 3500 
L 800 3500 
L 1894 563 
L 2988 3500 
L 3597 3500 
L 2284 0 
L 1503 0 
L 191 3500 
z
" transform="scale(0.015625)"/>
      <path id="DejaVuSans-79" d="M 2059 -325 
Q 1816 -950 1584 -1140 
Q 1353 -1331 966 -1331 
L 506 -1331 
L 506 -850 
L 844 -850 
Q 1081 -850 1212 -737 
Q 1344 -625 1503 -206 
L 1606 56 
L 191 3500 
L 800 3500 
L 1894 763 
L 2988 3500 
L 3597 3500 
L 2059 -325 
z
" transform="scale(0.015625)"/>
      <path id="DejaVuSans-69" d="M 603 3500 
L 1178 3500 
L 1178 0 
L 603 0 
L 603 3500 
z
M 603 4863 
L 1178 4863 
L 1178 4134 
L 603 4134 
L 603 4863 
z
" transform="scale(0.015625)"/>
      <path id="DejaVuSans-6d" d="M 3328 2828 
Q 3544 3216 3844 3400 
Q 4144 3584 4550 3584 
Q 5097 3584 5394 3201 
Q 5691 2819 5691 2113 
L 5691 0 
L 5113 0 
L 5113 2094 
Q 5113 2597 4934 2840 
Q 4756 3084 4391 3084 
Q 3944 3084 3684 2787 
Q 3425 2491 3425 1978 
L 3425 0 
L 2847 0 
L 2847 2094 
Q 2847 2600 2669 2842 
Q 2491 3084 2119 3084 
Q 1678 3084 1418 2786 
Q 1159 2488 1159 1978 
L 1159 0 
L 581 0 
L 581 3500 
L 1159 3500 
L 1159 2956 
Q 1356 3278 1631 3431 
Q 1906 3584 2284 3584 
Q 2666 3584 2933 3390 
Q 3200 3197 3328 2828 
z
" transform="scale(0.015625)"/>
     </defs>
     <use xlink:href="#DejaVuSans-54"/>
     <use xlink:href="#DejaVuSans-68" transform="translate(61.083984 0)"/>
     <use xlink:href="#DejaVuSans-72" transform="translate(124.462891 0)"/>
     <use xlink:href="#DejaVuSans-6f" transform="translate(163.326172 0)"/>
     <use xlink:href="#DejaVuSans-75" transform="translate(224.507812 0)"/>
     <use xlink:href="#DejaVuSans-67" transform="translate(287.886719 0)"/>
     <use xlink:href="#DejaVuSans-68" transform="translate(351.363281 0)"/>
     <use xlink:href="#DejaVuSans-70" transform="translate(414.742188 0)"/>
     <use xlink:href="#DejaVuSans-75" transform="translate(478.21875 0)"/>
     <use xlink:href="#DejaVuSans-74" transform="translate(541.597656 0)"/>
     <use xlink:href="#DejaVuSans-20" transform="translate(580.806641 0)"/>
     <use xlink:href="#DejaVuSans-76" transform="translate(612.59375 0)"/>
     <use xlink:href="#DejaVuSans-73" transform="translate(671.773438 0)"/>
     <use xlink:href="#DejaVuSans-20" transform="translate(723.873047 0)"/>
     <use xlink:href="#DejaVuSans-43" transform="translate(755.660156 0)"/>
     <use xlink:href="#DejaVuSans-6f" transform="translate(825.484375 0)"/>
     <use xlink:href="#DejaVuSans-6e" transform="translate(886.666016 0)"/>
     <use xlink:href="#DejaVuSans-63" transform="translate(950.044922 0)"/>
     <use xlink:href="#DejaVuSans-75" transform="translate(1005.025391 0)"/>
     <use xlink:href="#DejaVuSans-72" transform="translate(1068.404297 0)"/>
     <use xlink:href="#DejaVuSans-72" transform="translate(1107.767578 0)"/>
     <use xlink:href="#DejaVuSans-65" transform="translate(1146.630859 0)"/>
     <use xlink:href="#DejaVuSans-6e" transform="translate(1208.154297 0)"/>
     <use xlink:href="#DejaVuSans-63" transform="translate(1271.533203 0)"/>
     <use xlink:href="#DejaVuSans-79" transform="translate(1326.513672 0)"/>
     <use xlink:href="#DejaVuSans-20" transform="translate(1385.693359 0)"/>
     <use xlink:href="#DejaVuSans-28" transform="translate(1417.480469 0)"/>
     <use xlink:href="#DejaVuSans-73" transform="translate(1456.494141 0)"/>
     <use xlink:href="#DejaVuSans-68" transform="translate(1508.59375 0)"/>
     <use xlink:href="#DejaVuSans-6f" transform="translate(1571.972656 0)"/>
     <use xlink:href="#DejaVuSans-72" transform="translate(1633.154297 0)"/>
     <use xlink:href="#DejaVuSans-74" transform="translate(1674.267578 0)"/>
     <use xlink:href="#DejaVuSans-20" transform="translate(1713.476562 0)"/>
     <use xlink:href="#DejaVuSans-72" transform="translate(1745.263672 0)"/>
     <use xlink:href="#DejaVuSans-65" transform="translate(1784.126953 0)"/>
     <use xlink:href="#DejaVuSans-67" transform="translate(1845.650391 0)"/>
     <use xlink:href="#DejaVuSans-69" transform="translate(1909.126953 0)"/>
     <use xlink:href="#DejaVuSans-6d" transform="translate(1936.910156 0)"/>
     <use xlink:href="#DejaVuSans-65" transform="translate(2034.322266 0)"/>
     <use xlink:href="#DejaVuSans-29" transform="translate(2095.845703 0)"/>
    </g>
   </g>
   <g id="legend_1">
    <g id="patch_7">
     <path d="M 57.87 78.914375 
L 135.618437 78.914375 
Q 137.618437 78.914375 137.618437 76.914375 
L 137.618437 33.88 
Q 137.618437 31.88 135.618437 31.88 
L 57.87 31.88 
Q 55.87 31.88 55.87 33.88 
L 55.87 76.914375 
Q 55.87 78.914375 57.87 78.914375 
z
" style="fill: #ffffff; opacity: 0.8; stroke: #cccccc; stroke-linejoin: miter"/>
    </g>
    <g id="line2d_24">
     <path d="M 59.87 39.978437 
L 69.87 39.978437 
L 79.87 39.978437 
" style="fill: none; stroke: #2563eb; stroke-width: 2; stroke-linecap: square"/>
     <g>
      <use xlink:href="#mfb7dbc0823" x="69.87" y="39.978437" style="fill: #2563eb; stroke: #2563eb"/>
     </g>
    </g>
    <g id="text_14">
     <!-- vllm -->
     <g transform="translate(87.87 43.478437) scale(0.1 -0.1)">
      <defs>
       <path id="DejaVuSans-6c" d="M 603 4863 
L 1178 4863 
L 1178 0 
L 603 0 
L 603 4863 
z
" transform="scale(0.015625)"/>
      </defs>
      <use xlink:href="#DejaVuSans-76"/>
      <use xlink:href="#DejaVuSans-6c" transform="translate(59.179688 0)"/>
      <use xlink:href="#DejaVuSans-6c" transform="translate(86.962891 0)"/>
      <use xlink:href="#DejaVuSans-6d" transform="translate(114.746094 0)"/>
     </g>
    </g>
    <g id="line2d_25">
     <path d="M 59.87 54.656563 
L 69.87 54.656563 
L 79.87 54.656563 
" style="fill: none; stroke: #dc2626; stroke-width: 2; stroke-linecap: square"/>
     <g>
      <use xlink:href="#mfac549b3ba" x="69.87" y="54.656563" style="fill: #dc2626; stroke: #dc2626; stroke-linejoin: miter"/>
     </g>
    </g>
    <g id="text_15">
     <!-- sglang -->
     <g transform="translate(87.87 58.156563) scale(0.1 -0.1)">
      <defs>
       <path id="DejaVuSans-61" d="M 2194 1759 
Q 1497 1759 1228 1600 
Q 959 1441 959 1056 
Q 959 750 1161 570 
Q 1363 391 1709 391 
Q 2188 391 2477 730 
Q 2766 1069 2766 1631 
L 2766 1759 
L 2194 1759 
z
M 3341 1997 
L 3341 0 
L 2766 0 
L 2766 531 
Q 2569 213 2275 61 
Q 1981 -91 1556 -91 
Q 1019 -91 701 211 
Q 384 513 384 1019 
Q 384 1609 779 1909 
Q 1175 2209 1959 2209 
L 2766 2209 
L 2766 2266 
Q 2766 2663 2505 2880 
Q 2244 3097 1772 3097 
Q 1472 3097 1187 3025 
Q 903 2953 641 2809 
L 641 3341 
Q 956 3463 1253 3523 
Q 1550 3584 1831 3584 
Q 2591 3584 2966 3190 
Q 3341 2797 3341 1997 
z
" transform="scale(0.015625)"/>
      </defs>
      <use xlink:href="#DejaVuSans-73"/>
      <use xlink:href="#DejaVuSans-67" transform="translate(52.099609 0)"/>
      <use xlink:href="#DejaVuSans-6c" transform="translate(115.576172 0)"/>
      <use xlink:href="#DejaVuSans-61" transform="translate(143.359375 0)"/>
      <use xlink:href="#DejaVuSans-6e" transform="translate(204.638672 0)"/>
      <use xlink:href="#DejaVuSans-67" transform="translate(268.017578 0)"/>
     </g>
    </g>
    <g id="line2d_26">
     <path d="M 59.87 69.334687 
L 69.87 69.334687 
L 79.87 69.334687 
" style="fill: none; stroke: #16a34a; stroke-width: 2; stroke-linecap: square"/>
     <g>
      <use xlink:href="#m41351dbbd9" x="69.87" y="69.334687" style="fill: #16a34a; stroke: #16a34a; stroke-linejoin: miter"/>
     </g>
    </g>
    <g id="text_16">
     <!-- llamacpp -->
     <g transform="translate(87.87 72.834687) scale(0.1 -0.1)">
      <use xlink:href="#DejaVuSans-6c"/>
      <use xlink:href="#DejaVuSans-6c" transform="translate(27.783203 0)"/>
      <use xlink:href="#DejaVuSans-61" transform="translate(55.566406 0)"/>
      <use xlink:href="#DejaVuSans-6d" transform="translate(116.845703 0)"/>
      <use xlink:href="#DejaVuSans-61" transform="translate(214.257812 0)"/>
      <use xlink:href="#DejaVuSans-63" transform="translate(275.537109 0)"/>
      <use xlink:href="#DejaVuSans-70" transform="translate(330.517578 0)"/>
      <use xlink:href="#DejaVuSans-70" transform="translate(393.994141 0)"/>
     </g>
    </g>
   </g>
  </g>
  <g id="axes_2">
   <g id="patch_8">
    <path d="M 549.47 318.04 
L 997.2 318.04 
L 997.2 26.88 
L 549.47 26.88 
z
" style="fill: #ffffff"/>
   </g>
   <g id="FillBetweenPolyCollection_4">
    <defs>
     <path id="me4ff5a89cf" d="M 569.821364 -55.194545 
L 569.821364 -55.194545 
L 841.172879 -127.817066 
L 976.848636 -299.604562 
L 976.848636 -299.604562 
L 976.848636 -299.604562 
L 841.172879 -127.817066 
L 569.821364 -55.194545 
z
" style="stroke: #2563eb; stroke-opacity: 0.15"/>
    </defs>
    <g clip-path="url(#p9e6cccd07f)">
     <use xlink:href="#me4ff5a89cf" x="0" y="360" style="fill: #2563eb; fill-opacity: 0.15; stroke: #2563eb; stroke-opacity: 0.15"/>
    </g>
   </g>
   <g id="FillBetweenPolyCollection_5">
    <defs>
     <path id="ma79d7348a9" d="M 569.821364 -55.255681 
L 569.821364 -55.255681 
L 841.172879 -129.953591 
L 976.848636 -319.885455 
L 976.848636 -319.885455 
L 976.848636 -319.885455 
L 841.172879 -129.953591 
L 569.821364 -55.255681 
z
" style="stroke: #dc2626; stroke-opacity: 0.15"/>
    </defs>
    <g clip-path="url(#p9e6cccd07f)">
     <use xlink:href="#ma79d7348a9" x="0" y="360" style="fill: #dc2626; fill-opacity: 0.15; stroke: #dc2626; stroke-opacity: 0.15"/>
    </g>
   </g>
   <g id="FillBetweenPolyCollection_6">
    <defs>
     <path id="m624ed3ef81" d="M 569.821364 -61.797178 
L 569.821364 -61.797178 
L 841.172879 -80.877884 
L 976.848636 -103.417573 
L 976.848636 -103.417573 
L 976.848636 -103.417573 
L 841.172879 -80.877884 
L 569.821364 -61.797178 
z
" style="stroke: #16a34a; stroke-opacity: 0.15"/>
    </defs>
    <g clip-path="url(#p9e6cccd07f)">
     <use xlink:href="#m624ed3ef81" x="0" y="360" style="fill: #16a34a; fill-opacity: 0.15; stroke: #16a34a; stroke-opacity: 0.15"/>
    </g>
   </g>
   <g id="matplotlib.axis_3">
    <g id="xtick_6">
     <g id="line2d_27">
      <path d="M 569.821364 318.04 
L 569.821364 26.88 
" clip-path="url(#p9e6cccd07f)" style="fill: none; stroke: #b0b0b0; stroke-opacity: 0.3; stroke-width: 0.8; stroke-linecap: square"/>
     </g>
     <g id="line2d_28">
      <g>
       <use xlink:href="#m660026cb6e" x="569.821364" y="318.04" style="stroke: #000000; stroke-width: 0.8"/>
      </g>
     </g>
     <g id="text_17">
      <!-- 1 -->
      <g transform="translate(566.640114 332.638438) scale(0.1 -0.1)">
       <use xlink:href="#DejaVuSans-31"/>
      </g>
     </g>
    </g>
    <g id="xtick_7">
     <g id="line2d_29">
      <path d="M 705.497121 318.04 
L 705.497121 26.88 
" clip-path="url(#p9e6cccd07f)" style="fill: none; stroke: #b0b0b0; stroke-opacity: 0.3; stroke-width: 0.8; stroke-linecap: square"/>
     </g>
     <g id="line2d_30">
      <g>
       <use xlink:href="#m660026cb6e" x="705.497121" y="318.04" style="stroke: #000000; stroke-width: 0.8"/>
      </g>
     </g>
     <g id="text_18">
      <!-- 4 -->
      <g transform="translate(702.315871 332.638438) scale(0.1 -0.1)">
       <use xlink:href="#DejaVuSans-34"/>
      </g>
     </g>
    </g>
    <g id="xtick_8">
     <g id="line2d_31">
      <path d="M 841.172879 318.04 
L 841.172879 26.88 
" clip-path="url(#p9e6cccd07f)" style="fill: none; stroke: #b0b0b0; stroke-opacity: 0.3; stroke-width: 0.8; stroke-linecap: square"/>
     </g>
     <g id="line2d_32">
      <g>
       <use xlink:href="#m660026cb6e" x="841.172879" y="318.04" style="stroke: #000000; stroke-width: 0.8"/>
      </g>
     </g>
     <g id="text_19">
      <!-- 16 -->
      <g transform="translate(834.810379 332.638438) scale(0.1 -0.1)">
       <use xlink:href="#DejaVuSans-31"/>
       <use xlink:href="#DejaVuSans-36" transform="translate(63.623047 0)"/>
      </g>
     </g>
    </g>
    <g id="xtick_9">
     <g id="line2d_33">
      <path d="M 909.010758 318.04 
L 909.010758 26.88 
" clip-path="url(#p9e6cccd07f)" style="fill: none; stroke: #b0b0b0; stroke-opacity: 0.3; stroke-width: 0.8; stroke-linecap: square"/>
     </g>
     <g id="line2d_34">
      <g>
       <use xlink:href="#m660026cb6e" x="909.010758" y="318.04" style="stroke: #000000; stroke-width: 0.8"/>
      </g>
     </g>
     <g id="text_20">
      <!-- 32 -->
      <g transform="translate(902.648258 332.638438) scale(0.1 -0.1)">
       <use xlink:href="#DejaVuSans-33"/>
       <use xlink:href="#DejaVuSans-32" transform="translate(63.623047 0)"/>
      </g>
     </g>
    </g>
    <g id="xtick_10">
     <g id="line2d_35">
      <path d="M 976.848636 318.04 
L 976.848636 26.88 
" clip-path="url(#p9e6cccd07f)" style="fill: none; stroke: #b0b0b0; stroke-opacity: 0.3; stroke-width: 0.8; stroke-linecap: square"/>
     </g>
     <g id="line2d_36">
      <g>
       <use xlink:href="#m660026cb6e" x="976.848636" y="318.04" style="stroke: #000000; stroke-width: 0.8"/>
      </g>
     </g>
     <g id="text_21">
      <!-- 64 -->
      <g transform="translate(970.486136 332.638438) scale(0.1 -0.1)">
       <use xlink:href="#DejaVuSans-36"/>
       <use xlink:href="#DejaVuSans-34" transform="translate(63.623047 0)"/>
      </g>
     </g>
    </g>
    <g id="text_22">
     <!-- Concurrent Requests -->
     <g transform="translate(721.077188 346.316563) scale(0.1 -0.1)">
      <use xlink:href="#DejaVuSans-43"/>
      <use xlink:href="#DejaVuSans-6f" transform="translate(69.824219 0)"/>
      <use xlink:href="#DejaVuSans-6e" transform="translate(131.005859 0)"/>
      <use xlink:href="#DejaVuSans-63" transform="translate(194.384766 0)"/>
      <use xlink:href="#DejaVuSans-75" transform="translate(249.365234 0)"/>
      <use xlink:href="#DejaVuSans-72" transform="translate(312.744141 0)"/>
      <use xlink:href="#DejaVuSans-72" transform="translate(352.107422 0)"/>
      <use xlink:href="#DejaVuSans-65" transform="translate(390.970703 0)"/>
      <use xlink:href="#DejaVuSans-6e" transform="translate(452.494141 0)"/>
      <use xlink:href="#DejaVuSans-74" transform="translate(515.873047 0)"/>
      <use xlink:href="#DejaVuSans-20" transform="translate(555.082031 0)"/>
      <use xlink:href="#DejaVuSans-52" transform="translate(586.869141 0)"/>
      <use xlink:href="#DejaVuSans-65" transform="translate(651.851562 0)"/>
      <use xlink:href="#DejaVuSans-71" transform="translate(713.375 0)"/>
      <use xlink:href="#DejaVuSans-75" transform="translate(776.851562 0)"/>
      <use xlink:href="#DejaVuSans-65" transform="translate(840.230469 0)"/>
      <use xlink:href="#DejaVuSans-73" transform="translate(901.753906 0)"/>
      <use xlink:href="#DejaVuSans-74" transform="translate(953.853516 0)"/>
      <use xlink:href="#DejaVuSans-73" transform="translate(993.0625 0)"/>
     </g>
    </g>
   </g>
   <g id="matplotlib.axis_4">
    <g id="ytick_6">
     <g id="line2d_37">
      <path d="M 549.47 310.256166 
L 997.2 310.256166 
" clip-path="url(#p9e6cccd07f)" style="fill: none; stroke: #b0b0b0; stroke-opacity: 0.3; stroke-width: 0.8; stroke-linecap: square"/>
     </g>
     <g id="line2d_38">
      <g>
       <use xlink:href="#mae9df2e3e1" x="549.47" y="310.256166" style="stroke: #000000; stroke-width: 0.8"/>
      </g>
     </g>
     <g id="text_23">
      <!-- 0 -->
      <g transform="translate(536.1075 314.055384) scale(0.1 -0.1)">
       <use xlink:href="#DejaVuSans-30"/>
      </g>
     </g>
    </g>
    <g id="ytick_7">
     <g id="line2d_39">
      <path d="M 549.47 245.903024 
L 997.2 245.903024 
" clip-path="url(#p9e6cccd07f)" style="fill: none; stroke: #b0b0b0; stroke-opacity: 0.3; stroke-width: 0.8; stroke-linecap: square"/>
     </g>
     <g id="line2d_40">
      <g>
       <use xlink:href="#mae9df2e3e1" x="549.47" y="245.903024" style="stroke: #000000; stroke-width: 0.8"/>
      </g>
     </g>
     <g id="text_24">
      <!-- 200 -->
      <g transform="translate(523.3825 249.702242) scale(0.1 -0.1)">
       <use xlink:href="#DejaVuSans-32"/>
       <use xlink:href="#DejaVuSans-30" transform="translate(63.623047 0)"/>
       <use xlink:href="#DejaVuSans-30" transform="translate(127.246094 0)"/>
      </g>
     </g>
    </g>
    <g id="ytick_8">
     <g id="line2d_41">
      <path d="M 549.47 181.549881 
L 997.2 181.549881 
" clip-path="url(#p9e6cccd07f)" style="fill: none; stroke: #b0b0b0; stroke-opacity: 0.3; stroke-width: 0.8; stroke-linecap: square"/>
     </g>
     <g id="line2d_42">
      <g>
       <use xlink:href="#mae9df2e3e1" x="549.47" y="181.549881" style="stroke: #000000; stroke-width: 0.8"/>
      </g>
     </g>
     <g id="text_25">
      <!-- 400 -->
      <g transform="translate(523.3825 185.3491) scale(0.1 -0.1)">
       <use xlink:href="#DejaVuSans-34"/>
       <use xlink:href="#DejaVuSans-30" transform="translate(63.623047 0)"/>
       <use xlink:href="#DejaVuSans-30" transform="translate(127.246094 0)"/>
      </g>
     </g>
    </g>
    <g id="ytick_9">
     <g id="line2d_43">
      <path d="M 549.47 117.196739 
L 997.2 117.196739 
" clip-path="url(#p9e6cccd07f)" style="fill: none; stroke: #b0b0b0; stroke-opacity: 0.3; stroke-width: 0.8; stroke-linecap: square"/>
     </g>
     <g id="line2d_44">
      <g>
       <use xlink:href="#mae9df2e3e1" x="549.47" y="117.196739" style="stroke: #000000; stroke-width: 0.8"/>
      </g>
     </g>
     <g id="text_26">
      <!-- 600 -->
      <g transform="translate(523.3825 120.995958) scale(0.1 -0.1)">
       <use xlink:href="#DejaVuSans-36"/>
       <use xlink:href="#DejaVuSans-30" transform="translate(63.623047 0)"/>
       <use xlink:href="#DejaVuSans-30" transform="translate(127.246094 0)"/>
      </g>
     </g>
    </g>
    <g id="ytick_10">
     <g id="line2d_45">
      <path d="M 549.47 52.843597 
L 997.2 52.843597 
" clip-path="url(#p9e6cccd07f)" style="fill: none; stroke: #b0b0b0; stroke-opacity: 0.3; stroke-width: 0.8; stroke-linecap: square"/>
     </g>
     <g id="line2d_46">
      <g>
       <use xlink:href="#mae9df2e3e1" x="549.47" y="52.843597" style="stroke: #000000; stroke-width: 0.8"/>
      </g>
     </g>
     <g id="text_27">
      <!-- 800 -->
      <g transform="translate(523.3825 56.642816) scale(0.1 -0.1)">
       <use xlink:href="#DejaVuSans-38"/>
       <use xlink:href="#DejaVuSans-30" transform="translate(63.623047 0)"/>
       <use xlink:href="#DejaVuSans-30" transform="translate(127.246094 0)"/>
      </g>
     </g>
    </g>
    <g id="text_28">
     <!-- Throughput (output tokens/sec) -->
     <g transform="translate(517.302813 251.769375) rotate(-90) scale(0.1 -0.1)">
      <use xlink:href="#DejaVuSans-54"/>
      <use xlink:href="#DejaVuSans-68" transform="translate(61.083984 0)"/>
      <use xlink:href="#DejaVuSans-72" transform="translate(124.462891 0)"/>
      <use xlink:href="#DejaVuSans-6f" transform="translate(163.326172 0)"/>
      <use xlink:href="#DejaVuSans-75" transform="translate(224.507812 0)"/>
      <use xlink:href="#DejaVuSans-67" transform="translate(287.886719 0)"/>
      <use xlink:href="#DejaVuSans-68" transform="translate(351.363281 0)"/>
      <use xlink:href="#DejaVuSans-70" transform="translate(414.742188 0)"/>
      <use xlink:href="#DejaVuSans-75" transform="translate(478.21875 0)"/>
      <use xlink:href="#DejaVuSans-74" transform="translate(541.597656 0)"/>
      <use xlink:href="#DejaVuSans-20" transform="translate(580.806641 0)"/>
      <use xlink:href="#DejaVuSans-28" transform="translate(612.59375 0)"/>
      <use xlink:href="#DejaVuSans-6f" transform="translate(651.607422 0)"/>
      <use xlink:href="#DejaVuSans-75" transform="translate(712.789062 0)"/>
      <use xlink:href="#DejaVuSans-74" transform="translate(776.167969 0)"/>
      <use xlink:href="#DejaVuSans-70" transform="translate(815.376953 0)"/>
      <use xlink:href="#DejaVuSans-75" transform="translate(878.853516 0)"/>
      <use xlink:href="#DejaVuSans-74" transform="translate(942.232422 0)"/>
      <use xlink:href="#DejaVuSans-20" transform="translate(981.441406 0)"/>
      <use xlink:href="#DejaVuSans-74" transform="translate(1013.228516 0)"/>
      <use xlink:href="#DejaVuSans-6f" transform="translate(1052.4375 0)"/>
      <use xlink:href="#DejaVuSans-6b" transform="translate(1113.619141 0)"/>
      <use xlink:href="#DejaVuSans-65" transform="translate(1167.904297 0)"/>
      <use xlink:href="#DejaVuSans-6e" transform="translate(1229.427734 0)"/>
      <use xlink:href="#DejaVuSans-73" transform="translate(1292.806641 0)"/>
      <use xlink:href="#DejaVuSans-2f" transform="translate(1344.90625 0)"/>
      <use xlink:href="#DejaVuSans-73" transform="translate(1378.597656 0)"/>
      <use xlink:href="#DejaVuSans-65" transform="translate(1430.697266 0)"/>
      <use xlink:href="#DejaVuSans-63" transform="translate(1492.220703 0)"/>
      <use xlink:href="#DejaVuSans-29" transform="translate(1547.201172 0)"/>
     </g>
    </g>
   </g>
   <g id="line2d_47">
    <path d="M 569.821364 304.805455 
L 841.172879 232.182934 
L 976.848636 60.395438 
" clip-path="url(#p9e6cccd07f)" style="fill: none; stroke: #2563eb; stroke-width: 2; stroke-linecap: square"/>
    <g clip-path="url(#p9e6cccd07f)">
     <use xlink:href="#mfb7dbc0823" x="569.821364" y="304.805455" style="fill: #2563eb; stroke: #2563eb"/>
     <use xlink:href="#mfb7dbc0823" x="841.172879" y="232.182934" style="fill: #2563eb; stroke: #2563eb"/>
     <use xlink:href="#mfb7dbc0823" x="976.848636" y="60.395438" style="fill: #2563eb; stroke: #2563eb"/>
    </g>
   </g>
   <g id="line2d_48">
    <path d="M 569.821364 304.744319 
L 841.172879 230.046409 
L 976.848636 40.114545 
" clip-path="url(#p9e6cccd07f)" style="fill: none; stroke: #dc2626; stroke-width: 2; stroke-linecap: square"/>
    <g clip-path="url(#p9e6cccd07f)">
     <use xlink:href="#mfac549b3ba" x="569.821364" y="304.744319" style="fill: #dc2626; stroke: #dc2626; stroke-linejoin: miter"/>
     <use xlink:href="#mfac549b3ba" x="841.172879" y="230.046409" style="fill: #dc2626; stroke: #dc2626; stroke-linejoin: miter"/>
     <use xlink:href="#mfac549b3ba" x="976.848636" y="40.114545" style="fill: #dc2626; stroke: #dc2626; stroke-linejoin: miter"/>
    </g>
   </g>
   <g id="line2d_49">
    <path d="M 569.821364 298.202822 
L 841.172879 279.122116 
L 976.848636 256.582427 
" clip-path="url(#p9e6cccd07f)" style="fill: none; stroke: #16a34a; stroke-width: 2; stroke-linecap: square"/>
    <g clip-path="url(#p9e6cccd07f)">
     <use xlink:href="#m41351dbbd9" x="569.821364" y="298.202822" style="fill: #16a34a; stroke: #16a34a; stroke-linejoin: miter"/>
     <use xlink:href="#m41351dbbd9" x="841.172879" y="279.122116" style="fill: #16a34a; stroke: #16a34a; stroke-linejoin: miter"/>
     <use xlink:href="#m41351dbbd9" x="976.848636" y="256.582427" style="fill: #16a34a; stroke: #16a34a; stroke-linejoin: miter"/>
    </g>
   </g>
   <g id="patch_9">
    <path d="M 549.47 318.04 
L 549.47 26.88 
" style="fill: none; stroke: #000000; stroke-width: 0.8; stroke-linejoin: miter; stroke-linecap: square"/>
   </g>
   <g id="patch_10">
    <path d="M 997.2 318.04 
L 997.2 26.88 
" style="fill: none; stroke: #000000; stroke-width: 0.8; stroke-linejoin: miter; stroke-linecap: square"/>
   </g>
   <g id="patch_11">
    <path d="M 549.47 318.04 
L 997.2 318.04 
" style="fill: none; stroke: #000000; stroke-width: 0.8; stroke-linejoin: miter; stroke-linecap: square"/>
   </g>
   <g id="patch_12">
    <path d="M 549.47 26.88 
L 997.2 26.88 
" style="fill: none; stroke: #000000; stroke-width: 0.8; stroke-linejoin: miter; stroke-linecap: square"/>
   </g>
   <g id="text_29">
    <!-- Throughput vs Concurrency (long regime) -->
    <g transform="translate(647.712813 20.88) scale(0.12 -0.12)">
     <use xlink:href="#DejaVuSans-54"/>
     <use xlink:href="#DejaVuSans-68" transform="translate(61.083984 0)"/>
     <use xlink:href="#DejaVuSans-72" transform="translate(124.462891 0)"/>
     <use xlink:href="#DejaVuSans-6f" transform="translate(163.326172 0)"/>
     <use xlink:href="#DejaVuSans-75" transform="translate(224.507812 0)"/>
     <use xlink:href="#DejaVuSans-67" transform="translate(287.886719 0)"/>
     <use xlink:href="#DejaVuSans-68" transform="translate(351.363281 0)"/>
     <use xlink:href="#DejaVuSans-70" transform="translate(414.742188 0)"/>
     <use xlink:href="#DejaVuSans-75" transform="translate(478.21875 0)"/>
     <use xlink:href="#DejaVuSans-74" transform="translate(541.597656 0)"/>
     <use xlink:href="#DejaVuSans-20" transform="translate(580.806641 0)"/>
     <use xlink:href="#DejaVuSans-76" transform="translate(612.59375 0)"/>
     <use xlink:href="#DejaVuSans-73" transform="translate(671.773438 0)"/>
     <use xlink:href="#DejaVuSans-20" transform="translate(723.873047 0)"/>
     <use xlink:href="#DejaVuSans-43" transform="translate(755.660156 0)"/>
     <use xlink:href="#DejaVuSans-6f" transform="translate(825.484375 0)"/>
     <use xlink:href="#DejaVuSans-6e" transform="translate(886.666016 0)"/>
     <use xlink:href="#DejaVuSans-63" transform="translate(950.044922 0)"/>
     <use xlink:href="#DejaVuSans-75" transform="translate(1005.025391 0)"/>
     <use xlink:href="#DejaVuSans-72" transform="translate(1068.404297 0)"/>
     <use xlink:href="#DejaVuSans-72" transform="translate(1107.767578 0)"/>
     <use xlink:href="#DejaVuSans-65" transform="translate(1146.630859 0)"/>
     <use xlink:href="#DejaVuSans-6e" transform="translate(1208.154297 0)"/>
     <use xlink:href="#DejaVuSans-63" transform="translate(1271.533203 0)"/>
     <use xlink:href="#DejaVuSans-79" transform="translate(1326.513672 0)"/>
     <use xlink:href="#DejaVuSans-20" transform="translate(1385.693359 0)"/>
     <use xlink:href="#DejaVuSans-28" transform="translate(1417.480469 0)"/>
     <use xlink:href="#DejaVuSans-6c" transform="translate(1456.494141 0)"/>
     <use xlink:href="#DejaVuSans-6f" transform="translate(1484.277344 0)"/>
     <use xlink:href="#DejaVuSans-6e" transform="translate(1545.458984 0)"/>
     <use xlink:href="#DejaVuSans-67" transform="translate(1608.837891 0)"/>
     <use xlink:href="#DejaVuSans-20" transform="translate(1672.314453 0)"/>
     <use xlink:href="#DejaVuSans-72" transform="translate(1704.101562 0)"/>
     <use xlink:href="#DejaVuSans-65" transform="translate(1742.964844 0)"/>
     <use xlink:href="#DejaVuSans-67" transform="translate(1804.488281 0)"/>
     <use xlink:href="#DejaVuSans-69" transform="translate(1867.964844 0)"/>
     <use xlink:href="#DejaVuSans-6d" transform="translate(1895.748047 0)"/>
     <use xlink:href="#DejaVuSans-65" transform="translate(1993.160156 0)"/>
     <use xlink:href="#DejaVuSans-29" transform="translate(2054.683594 0)"/>
    </g>
   </g>
   <g id="legend_2">
    <g id="patch_13">
     <path d="M 556.47 78.914375 
L 634.218438 78.914375 
Q 636.218438 78.914375 636.218438 76.914375 
L 636.218438 33.88 
Q 636.218438 31.88 634.218438 31.88 
L 556.47 31.88 
Q 554.47 31.88 554.47 33.88 
L 554.47 76.914375 
Q 554.47 78.914375 556.47 78.914375 
z
" style="fill: #ffffff; opacity: 0.8; stroke: #cccccc; stroke-linejoin: miter"/>
    </g>
    <g id="line2d_50">
     <path d="M 558.47 39.978437 
L 568.47 39.978437 
L 578.47 39.978437 
" style="fill: none; stroke: #2563eb; stroke-width: 2; stroke-linecap: square"/>
     <g>
      <use xlink:href="#mfb7dbc0823" x="568.47" y="39.978437" style="fill: #2563eb; stroke: #2563eb"/>
     </g>
    </g>
    <g id="text_30">
     <!-- vllm -->
     <g transform="translate(586.47 43.478437) scale(0.1 -0.1)">
      <use xlink:href="#DejaVuSans-76"/>
      <use xlink:href="#DejaVuSans-6c" transform="translate(59.179688 0)"/>
      <use xlink:href="#DejaVuSans-6c" transform="translate(86.962891 0)"/>
      <use xlink:href="#DejaVuSans-6d" transform="translate(114.746094 0)"/>
     </g>
    </g>
    <g id="line2d_51">
     <path d="M 558.47 54.656563 
L 568.47 54.656563 
L 578.47 54.656563 
" style="fill: none; stroke: #dc2626; stroke-width: 2; stroke-linecap: square"/>
     <g>
      <use xlink:href="#mfac549b3ba" x="568.47" y="54.656563" style="fill: #dc2626; stroke: #dc2626; stroke-linejoin: miter"/>
     </g>
    </g>
    <g id="text_31">
     <!-- sglang -->
     <g transform="translate(586.47 58.156563) scale(0.1 -0.1)">
      <use xlink:href="#DejaVuSans-73"/>
      <use xlink:href="#DejaVuSans-67" transform="translate(52.099609 0)"/>
      <use xlink:href="#DejaVuSans-6c" transform="translate(115.576172 0)"/>
      <use xlink:href="#DejaVuSans-61" transform="translate(143.359375 0)"/>
      <use xlink:href="#DejaVuSans-6e" transform="translate(204.638672 0)"/>
      <use xlink:href="#DejaVuSans-67" transform="translate(268.017578 0)"/>
     </g>
    </g>
    <g id="line2d_52">
     <path d="M 558.47 69.334687 
L 568.47 69.334687 
L 578.47 69.334687 
" style="fill: none; stroke: #16a34a; stroke-width: 2; stroke-linecap: square"/>
     <g>
      <use xlink:href="#m41351dbbd9" x="568.47" y="69.334687" style="fill: #16a34a; stroke: #16a34a; stroke-linejoin: miter"/>
     </g>
    </g>
    <g id="text_32">
     <!-- llamacpp -->
     <g transform="translate(586.47 72.834687) scale(0.1 -0.1)">
      <use xlink:href="#DejaVuSans-6c"/>
      <use xlink:href="#DejaVuSans-6c" transform="translate(27.783203 0)"/>
      <use xlink:href="#DejaVuSans-61" transform="translate(55.566406 0)"/>
      <use xlink:href="#DejaVuSans-6d" transform="translate(116.845703 0)"/>
      <use xlink:href="#DejaVuSans-61" transform="translate(214.257812 0)"/>
      <use xlink:href="#DejaVuSans-63" transform="translate(275.537109 0)"/>
      <use xlink:href="#DejaVuSans-70" transform="translate(330.517578 0)"/>
      <use xlink:href="#DejaVuSans-70" transform="translate(393.994141 0)"/>
     </g>
    </g>
   </g>
  </g>
 </g>
 <defs>
  <clipPath id="pc8ba68c2f6">
   <rect x="50.87" y="26.88" width="447.73" height="291.16"/>
  </clipPath>
  <clipPath id="p9e6cccd07f">
   <rect x="549.47" y="26.88" width="447.73" height="291.16"/>
  </clipPath>
 </defs>
</svg>
